<svg height="320pt" preserveAspectRatio="xMidYMid meet" viewBox="0 0 320 320" width="320pt" xmlns="http://www.w3.org/2000/svg"><path d="m1535 2816c-22-12-175-101-340-196s-336-194-380-220-126-73-182-106l-102-59-1-610v-610l22-14c36-23 187-111 248-144 30-17 72-41 92-54 21-13 40-23 43-23s18-8 33-19c15-10 135-80 267-156s261-151 286-166c25-16 52-29 60-29 13 0 115 56 349 192 177 103 605 350 658 380l52 30v608 609l-42 29c-24 16-70 44-103 62-56 31-327 187-530 305-49 29-112 65-140 81-27 16-57 34-67 39-77 46-168 95-175 95-4 0-26-11-48-24zm2-563c-2-2-186-2-408-1l-404 3 195 114c182 107 324 189 430 249 25 14 77 44 115 67l70 41 3-235c1-128 1-236-1-238zm182 425c127-76 178-105 366-213 94-54 213-123 265-154l95-56-400-3c-220-1-406 0-412 3-10 3-13 60-13 240 0 129 3 235 6 235 4 0 45-23 93-52zm-209-512c0-2-80-143-178-312-98-170-193-337-212-372-19-34-39-61-44-59s-96 154-202 337c-106 184-202 350-213 367-12 18-21 35-21 38s196 5 435 5 435-2 435-4zm1009-18c-6-13-36-65-65-115-30-51-78-135-108-185-30-51-99-171-154-266l-99-172-128 222c-71 123-168 291-217 375-48 84-88 155-88 158s196 5 435 5h436zm-916-45c8-16 49-89 92-163s103-178 133-230 62-108 72-125c65-111 110-194 110-204 0-8-123-11-430-11-236 0-430 2-430 3 0 2 68 123 152 268 83 145 180 315 215 377 36 61 66 112 68 112s10-12 18-27zm-827-333c86-151 176-309 200-350l42-74-33-23c-19-13-36-23-39-23-2 0-26-13-53-29-108-65-274-161-278-161-3 0-5 212-5 472 0 259 2 469 4 467s75-128 162-279zm1780-657c-2-2-43 20-92 48-90 53-152 89-256 149-50 30-56 36-46 53 6 11 71 126 146 256s161 280 191 334l56 99 3-468c1-257 1-469-2-471zm-536 175c0-7-10-29-22-48s-45-75-73-125c-29-49-76-130-105-180-29-49-66-115-83-145s-59-101-93-158l-62-103-64 113c-36 62-91 158-123 213s-98 170-147 255c-50 85-94 160-99 166s-6 14-2 17c3 4 201 7 440 7 340 0 433-3 433-12zm-937-50c9-18 28-53 43-78 36-61 248-429 296-513 22-38 37-71 35-74-3-2-47 20-99 50-51 30-109 64-128 75s-118 68-220 127c-102 60-225 130-273 158-48 27-86 51-84 53 11 11 394 233 403 233 6 1 18-14 27-31zm1146-31c58-35 148-87 199-116 50-29 92-54 92-56s-19-14-42-27c-24-14-167-96-318-182-250-144-328-189-429-249l-33-20 12 24c7 13 71 125 143 249 71 124 157 273 190 333 34 59 65 107 70 107s57-28 116-63z" transform="matrix(.1 0 0 -.1 0 320)"/></svg>